<svg width="100" height="100" xmlns="http://www.w3.org/2000/svg" version="1.0" preserveAspectRatio="xMidYMid meet">
 <g id="Layer_1">
  <title>Вверх</title>
  <path id="svg_9" d="m4.97999,50.965l0,0c0,-23.74825 20.5949,-43 46.00001,-43l0,0c12.19996,0 23.90024,4.53034 32.52691,12.59441c8.62667,8.06407 13.47308,19.00129 13.47308,30.40559l0,0c0,23.74824 -20.5949,43 -46,43l0,0c-25.40511,0 -46.00001,-19.25176 -46.00001,-43zm46.00001,-43l0,86m-46.00001,-43l92.00001,0" stroke="#56aaff" fill="#56aaff"/>
  <path stroke="#56aaff" id="svg_10" d="m86.90594,47.7952l-9.46182,-9.30738l0,-22.2289l-8.11145,0l0,14.24984l-18.92673,-18.61781l-36.5,35.90425l8.6893,-0.20366l0,36.2994l55.23514,0l0,-36.09575l9.07556,0zm-36.5,30.90404l-18.02442,0l0,-21.27749l18.02442,0l0,21.27749zm17.51147,-9.11893l-11.84427,0l0,-12.28623l11.84427,0l0,12.28623z" fill="#ffffff"/>
 </g>
</svg>