<svg width="100" height="100" xmlns="http://www.w3.org/2000/svg" version="1.0" preserveAspectRatio="xMidYMid meet">
 <g id="Layer_1">
  <title>Назад</title>
  <path id="svg_1" d="m7.96499,50.47l0,0c0,-24.02439 19.25176,-43.5 43.00001,-43.5l0,0c11.40431,0 22.34152,4.58302 30.40559,12.74085c8.06407,8.15783 12.5944,19.22223 12.5944,30.75914l0,0c0,24.02438 -19.25175,43.49999 -43,43.49999l0,0c-23.74825,0 -43.00001,-19.47562 -43.00001,-43.49999zm43.00001,-43.5l0,86.99999m-43.00001,-43.49999l86.00001,0" stroke="#56aaff" fill="#56aaff"/>
  <path transform="rotate(180 50.0285 50.36)" id="svg_5" d="m41.82447,71.08809c-1.93358,-1.15278 -1.67989,-1.85084 3.02121,-8.31289c2.37383,-3.263 4.31604,-6.02755 4.31604,-6.14345c0,-0.11588 -6.55496,-0.21071 -14.56662,-0.21071l-14.56662,0l0,-6.11127l0,-6.11127l14.68206,0c11.3207,0 14.55568,-0.1841 14.13011,-0.80412c-0.30357,-0.44226 -2.37436,-3.37704 -4.60176,-6.52172c-4.19868,-5.9278 -4.19736,-7.51749 0.00649,-8.01024c2.0921,-0.24521 34.66355,18.59572 35.7831,20.69872c-10.84927,7.50887 -23.81782,15.36874 -35.76396,22.29891c-0.62989,0 -1.7279,-0.34738 -2.44005,-0.77195l0,0z" stroke="#56aaff" fill="#ffffff"/>
 </g>
</svg>